<?xml version="1.0" encoding="utf-8"?>
<!-- Generator: Adobe Illustrator 16.0.0, SVG Export Plug-In . SVG Version: 6.00 Build 0)  -->
<!DOCTYPE svg PUBLIC "-//W3C//DTD SVG 1.1//EN" "http://www.w3.org/Graphics/SVG/1.1/DTD/svg11.dtd">
<svg version="1.1" id="Icons" xmlns="http://www.w3.org/2000/svg" xmlns:xlink="http://www.w3.org/1999/xlink" x="0px" y="0px"
	 width="1920px" height="1080px" viewBox="0 0 1920 1080" enable-background="new 0 0 1920 1080" xml:space="preserve">
<g>
	<path fill="#8BDAEB" stroke="#000000" stroke-width="3" stroke-miterlimit="10" d="M94.639,106.655
		c-5.735-3.311-10.425-0.602-10.425,6.019v51.913c0,6.621,4.69,9.33,10.425,6.019l44.958-25.957c5.733-3.311,5.733-8.728,0-12.038
		L94.639,106.655z"/>
	<circle fill="#FFFFFF" cx="95.854" cy="121.661" r="6.821"/>
</g>
<g>
	<g>
		<g>
			<path fill="#F994AE" stroke="#000000" stroke-width="3" stroke-miterlimit="10" d="M289.637,163.093
				c0,3.068-2.489,5.558-5.559,5.558h-17.42c-3.071,0-5.56-2.49-5.56-5.558v-48.924c0-3.071,2.489-5.56,5.56-5.56h17.42
				c3.07,0,5.559,2.489,5.559,5.56V163.093z"/>
			<path fill="#F994AE" stroke="#000000" stroke-width="3" stroke-miterlimit="10" d="M335.837,163.093
				c0,3.068-2.489,5.558-5.56,5.558H312.86c-3.072,0-5.561-2.49-5.561-5.558v-48.924c0-3.071,2.489-5.56,5.561-5.56h17.417
				c3.071,0,5.56,2.489,5.56,5.56V163.093z"/>
		</g>
		<circle fill="#FFFFFF" cx="275.367" cy="122.879" r="6.822"/>
		<circle fill="#FFFFFF" cx="321.568" cy="122.879" r="6.822"/>
	</g>
</g>
<g>
	<g>
		<path fill="#F63E3C" stroke="#000000" stroke-width="3" stroke-miterlimit="10" d="M504.652,106.422l-15.807,15.808
			l-15.807-15.807c-1.767-1.764-4.625-1.765-6.391,0l-10.012,10.012c-1.763,1.764-1.763,4.625,0.003,6.389l15.807,15.808
			l-15.81,15.807c-1.763,1.763-1.763,4.625,0,6.39l10.012,10.01c1.766,1.765,4.624,1.765,6.391,0l15.807-15.806l15.809,15.807
			c1.764,1.764,4.625,1.764,6.389,0l10.011-10.011c1.766-1.764,1.764-4.626,0-6.389l-15.807-15.808l15.807-15.808
			c1.764-1.764,1.764-4.625,0-6.389l-10.014-10.012C509.279,104.657,506.417,104.657,504.652,106.422z"/>
	</g>
	<g>
		<g>
			<circle cx="477.815" cy="133.646" r="3.279"/>
			<circle cx="499.876" cy="133.646" r="3.279"/>
		</g>
		<path fill="none" stroke="#000000" stroke-width="2" stroke-linecap="round" stroke-miterlimit="10" d="M482.14,139.013
			c1.342,1.513,3.837,2.534,6.707,2.534c2.867,0,5.364-1.021,6.704-2.534"/>
	</g>
</g>
<g>
	<path fill="#8BDAEB" stroke="#000000" stroke-width="3" stroke-miterlimit="10" d="M1095.233,147.011
		c1.665,0,3.026-1.361,3.026-3.025v-10.712c0-1.664-1.361-3.025-3.026-3.025h-2.253c-1.664,0-3.395-1.066-3.846-2.369
		c-0.452-1.304-1.071-5.483,0.104-6.66l1.595-1.595c1.176-1.176,1.176-3.101,0-4.278l-7.574-7.572c-1.176-1.177-3.102-1.177-4.278,0
		l-1.594,1.594c-1.176,1.175-3.143,1.649-4.368,1.05c-1.228-0.599-4.661-3.128-4.661-4.793v-2.251c0-1.665-1.36-3.026-3.025-3.026
		h-10.711c-1.663,0-3.024,1.361-3.024,3.026v2.251c0,1.665-1.066,3.395-2.369,3.848c-1.304,0.45-5.482,1.071-6.659-0.104
		l-1.595-1.594c-1.177-1.177-3.101-1.177-4.279,0l-7.573,7.572c-1.177,1.177-1.177,3.102,0,4.278l1.596,1.595
		c1.176,1.177,1.648,3.144,1.051,4.369c-0.6,1.228-3.129,4.66-4.792,4.66h-2.254c-1.664,0-3.025,1.361-3.025,3.025v10.712
		c0,1.664,1.361,3.025,3.025,3.025h2.254c1.663,0,3.395,1.066,3.846,2.369c0.451,1.303,1.071,5.483-0.105,6.66l-1.595,1.594
		c-1.177,1.177-1.177,3.102,0,4.278l7.573,7.573c1.179,1.177,3.103,1.177,4.279,0l1.595-1.594c1.177-1.175,3.144-1.648,4.368-1.05
		c1.228,0.599,4.66,3.128,4.66,4.792v2.252c0,1.665,1.361,3.026,3.024,3.026h10.711c1.665,0,3.025-1.361,3.025-3.026v-2.252
		c0-1.664,1.067-3.394,2.37-3.847c1.302-0.45,5.482-1.071,6.659,0.104l1.593,1.594c1.177,1.177,3.103,1.177,4.278,0l7.575-7.572
		c1.176-1.177,1.177-3.103,0-4.278l-1.595-1.597c-1.177-1.175-1.649-3.142-1.052-4.369c0.6-1.226,3.129-4.659,4.793-4.659H1095.233z
		 M1059.979,158.982c-11.24,0-20.352-9.113-20.352-20.352s9.111-20.352,20.352-20.352c11.239,0,20.351,9.113,20.351,20.352
		S1071.218,158.982,1059.979,158.982z"/>
</g>
<g>
	<g>
		<g>
			<g>
				<path fill="#F63E3C" d="M1250.358,177.329c-10.338,0-20.057-4.026-27.367-11.336c-7.308-7.306-11.332-17.023-11.332-27.363
					c0-10.337,4.024-20.055,11.332-27.362c7.311-7.31,17.029-11.336,27.365-11.336s20.053,4.026,27.361,11.336
					c7.311,7.308,11.336,17.026,11.336,27.362s-4.025,20.054-11.336,27.365C1270.408,173.304,1260.692,177.329,1250.358,177.329z
					 M1235.486,161.535c4.438,2.902,9.545,4.428,14.872,4.428c7.298,0,14.161-2.843,19.324-8.005
					c5.16-5.164,8.002-12.027,8.002-19.326c0-5.331-1.524-10.436-4.426-14.868L1235.486,161.535z M1250.356,111.3
					c-7.299,0-14.162,2.843-19.326,8.005c-5.161,5.161-8.004,12.024-8.004,19.325c0,5.333,1.524,10.437,4.424,14.868l37.774-37.771
					C1260.789,112.825,1255.684,111.3,1250.356,111.3z"/>
				<path d="M1250.356,101.432c9.934,0,19.275,3.87,26.301,10.896c7.025,7.024,10.896,16.366,10.896,26.301
					c0,9.938-3.871,19.278-10.896,26.305c-7.025,7.024-16.363,10.894-26.299,10.894c-9.939,0-19.279-3.87-26.307-10.896
					c-7.025-7.024-10.893-16.364-10.893-26.302c0-9.935,3.867-19.276,10.893-26.301
					C1231.079,105.302,1240.419,101.432,1250.356,101.432 M1227.247,155.822l40.303-40.299c-4.949-3.696-10.912-5.723-17.193-5.723
					c-7.701,0-14.939,2.999-20.387,8.444c-5.445,5.445-8.443,12.686-8.443,20.386
					C1221.526,144.917,1223.552,150.878,1227.247,155.822 M1250.358,167.462c7.699,0,14.939-3,20.385-8.444
					c5.441-5.445,8.441-12.686,8.441-20.387c0-6.287-2.025-12.246-5.723-17.192l-40.301,40.299
					C1238.11,165.433,1244.071,167.462,1250.358,167.462 M1250.356,98.432c-10.737,0-20.832,4.182-28.426,11.775
					c-7.591,7.59-11.771,17.685-11.771,28.423c0,10.74,4.181,20.834,11.771,28.424c7.594,7.593,17.689,11.775,28.428,11.775
					c10.734,0,20.827-4.181,28.42-11.772c7.594-7.595,11.775-17.69,11.775-28.426c0-10.737-4.182-20.831-11.775-28.423
					C1271.187,102.614,1261.093,98.432,1250.356,98.432L1250.356,98.432z M1227.743,151.083c-2.113-3.798-3.217-8.043-3.217-12.454
					c0-6.9,2.687-13.386,7.564-18.265c4.881-4.878,11.367-7.565,18.266-7.565c4.406,0,8.652,1.104,12.454,3.219L1227.743,151.083
					L1227.743,151.083z M1237.9,161.242l35.066-35.065c2.113,3.799,3.218,8.044,3.218,12.454c0,6.898-2.687,13.386-7.563,18.267
					c-4.879,4.878-11.365,7.565-18.263,7.565C1245.951,164.462,1241.704,163.357,1237.9,161.242L1237.9,161.242z"/>
			</g>
		</g>
	</g>
</g>
<g>
	<g>
		<g>
			<g>
				<path fill="#FFEE6C" stroke="#000000" stroke-width="3" stroke-miterlimit="10" d="M1461.244,150.042
					c-5.475-5.482-12.765-8.498-20.511-8.498c-7.748,0-15.037,3.016-20.513,8.498c-2.15,2.149-2.15,5.636,0,7.785
					c2.148,2.149,5.634,2.149,7.785,0c3.396-3.401,7.915-5.276,12.728-5.276c4.809,0,9.33,1.875,12.726,5.276
					c2.153,2.149,5.639,2.149,7.785,0C1463.395,155.677,1463.395,152.191,1461.244,150.042z"/>
				<path fill="#FFEE6C" stroke="#000000" stroke-width="3" stroke-miterlimit="10" d="M1474.063,135.183
					c-8.901-8.901-20.74-13.806-33.33-13.806c-12.592,0-24.431,4.905-33.331,13.806c-2.148,2.152-2.148,5.636,0,7.785
					c2.149,2.148,5.635,2.148,7.781,0c6.824-6.824,15.898-10.583,25.55-10.583c9.648,0,18.725,3.758,25.55,10.583
					c2.146,2.148,5.631,2.148,7.78,0C1476.215,140.818,1476.215,137.334,1474.063,135.183z"/>
				<path fill="#FFEE6C" stroke="#000000" stroke-width="3" stroke-miterlimit="10" d="M1486.906,120.333
					c-12.33-12.336-28.728-19.128-46.173-19.128s-33.845,6.792-46.174,19.128c-2.148,2.15-2.148,5.636,0.003,7.788
					c2.15,2.146,5.635,2.149,7.783-0.002c10.253-10.258,23.885-15.902,38.388-15.902c14.501,0,28.135,5.644,38.388,15.902
					c2.146,2.151,5.633,2.148,7.783,0.002C1489.055,125.968,1489.055,122.482,1486.906,120.333z"/>
				<path fill="#FFEE6C" stroke="#000000" stroke-width="3" stroke-miterlimit="10" d="M1449.852,170.937
					c0,5.035-4.085,9.119-9.118,9.119c-5.035,0-9.121-4.084-9.121-9.119c0-5.038,4.086-9.122,9.121-9.122
					C1445.767,161.814,1449.852,165.898,1449.852,170.937z"/>
			</g>
		</g>
	</g>
</g>
<g>
	<g>
		
			<rect x="639.546" y="121.092" fill="#AE80CE" stroke="#000000" stroke-width="4" stroke-linecap="round" stroke-miterlimit="10" width="17.261" height="38.108"/>
		<polygon fill="#F994AE" stroke="#000000" stroke-width="4" stroke-linecap="round" stroke-miterlimit="10" points="
			689.221,176.01 656.807,159.197 656.807,121.092 689.221,104.281 		"/>
		<path fill="none" stroke="#FFFFFF" stroke-width="4" stroke-linecap="round" stroke-miterlimit="10" d="M696.582,119.485
			c11.212,11.515,11.279,29.994,0.146,41.322"/>
		<path fill="none" stroke="#FFFFFF" stroke-width="4" stroke-linecap="round" stroke-miterlimit="10" d="M707.415,111.911
			c15.327,15.736,15.417,40.993,0.204,56.47"/>
	</g>
</g>
<g>
	<g>
		
			<rect x="829.924" y="121.092" fill="#AE80CE" stroke="#000000" stroke-width="4" stroke-linecap="round" stroke-miterlimit="10" width="17.261" height="38.108"/>
		<polygon fill="#F994AE" stroke="#000000" stroke-width="4" stroke-linecap="round" stroke-miterlimit="10" points="
			879.599,176.01 847.185,159.197 847.185,121.092 879.599,104.281 		"/>
		<path fill="none" stroke="#FFFFFF" stroke-width="4" stroke-linecap="round" stroke-miterlimit="10" d="M886.96,119.485
			c11.212,11.515,11.28,29.994,0.147,41.322"/>
		<path fill="none" stroke="#FFFFFF" stroke-width="4" stroke-linecap="round" stroke-miterlimit="10" d="M897.793,111.911
			c15.327,15.736,15.416,40.993,0.203,56.47"/>
	</g>
	
		<line fill="none" stroke="#FFFFFF" stroke-width="6" stroke-linecap="round" stroke-miterlimit="10" x1="901.586" y1="100.931" x2="837.615" y2="177.054"/>
</g>
<g>
	<g>
		<g>
			<path fill="#8BDAEB" stroke="#000000" stroke-width="3" stroke-miterlimit="10" d="M1621.652,121.593
				c-2.24,0-4.056-1.816-4.056-4.057v-9.194c0-2.242,1.815-4.06,4.056-4.06h46.236c2.243,0,4.059,1.817,4.059,4.06v9.194
				c0,2.241-1.815,4.057-4.059,4.057H1621.652z"/>
			<circle fill="#8BDAEB" stroke="#000000" stroke-width="3" stroke-miterlimit="10" cx="1599.076" cy="112.938" r="8.803"/>
		</g>
		<g>
			<path fill="#8BDAEB" stroke="#000000" stroke-width="3" stroke-miterlimit="10" d="M1621.652,147.285
				c-2.24,0-4.056-1.817-4.056-4.057v-9.195c0-2.24,1.815-4.057,4.056-4.057h46.236c2.243,0,4.059,1.817,4.059,4.057v9.195
				c0,2.24-1.815,4.057-4.059,4.057H1621.652z"/>
			<path fill="#8BDAEB" stroke="#000000" stroke-width="3" stroke-miterlimit="10" d="M1607.879,138.629
				c0,4.863-3.939,8.804-8.803,8.804c-4.861,0-8.803-3.94-8.803-8.804c0-4.859,3.941-8.802,8.803-8.802
				C1603.939,129.828,1607.879,133.771,1607.879,138.629z"/>
		</g>
		<g>
			<path fill="#8BDAEB" stroke="#000000" stroke-width="3" stroke-miterlimit="10" d="M1621.652,172.977
				c-2.24,0-4.056-1.818-4.056-4.057v-9.196c0-2.239,1.815-4.057,4.056-4.057h46.236c2.243,0,4.059,1.817,4.059,4.057v9.196
				c0,2.239-1.815,4.057-4.059,4.057H1621.652z"/>
			<circle fill="#8BDAEB" stroke="#000000" stroke-width="3" stroke-miterlimit="10" cx="1599.076" cy="164.323" r="8.803"/>
		</g>
	</g>
</g>
<g>
	<g>
		<path fill="#FFEE6C" stroke="#000000" stroke-width="3" stroke-miterlimit="10" d="M1484.107,309.437l-8.171,8.166l-12.754-0.734
			l-0.735-12.754l8.17-8.17c-6.157-1.552-12.946,0.077-17.764,4.888c-4.676,4.679-6.343,11.221-5.01,17.233l-28.359,28.361
			c-6.016-1.333-12.557,0.337-17.233,5.013c-4.815,4.814-6.444,11.607-4.891,17.759l8.171-8.17l12.755,0.742l0.734,12.75
			l-8.169,8.169c6.157,1.555,12.946-0.073,17.764-4.889c4.676-4.675,6.344-11.217,5.009-17.23l28.359-28.362
			c6.018,1.335,12.559-0.334,17.232-5.012C1484.033,322.382,1485.661,315.59,1484.107,309.437z"/>
	</g>
</g>
<g>
	<g>
		<g>
			<g>
				<g>
					<g>
						<path fill="#5CE8D9" stroke="#000000" stroke-width="3" stroke-miterlimit="10" d="M1821.725,162.838
							c-12.913,0-23.42-10.731-23.42-23.94c0-13.2,10.507-23.947,23.42-23.947c5.543,0,10.621,1.994,14.627,5.295l-11.61,10.268
							l30.583,4.613l-0.063-31.598l-10.735,9.499c-6.035-5.563-14.027-8.972-22.802-8.972c-18.824,0-34.07,15.61-34.07,34.843
							c0,19.24,15.246,34.835,34.07,34.835c14.762,0,27.33-9.598,32.055-23.014l-10.884-1.644
							C1839.151,157.191,1831.077,162.838,1821.725,162.838z"/>
					</g>
				</g>
			</g>
		</g>
	</g>
</g>
<g>
	<g>
		<path fill="#5CE8D9" stroke="#000000" stroke-width="3" stroke-miterlimit="10" d="M143.5,338.664l-30.536-35.266
			c-2.68-3.094-7.065-3.094-9.746,0L72.68,338.664c-2.68,3.094-1.524,5.625,2.57,5.625h15.454v23.802
			c0,2.558,2.093,4.651,4.653,4.651h25.47c2.558,0,4.651-2.093,4.651-4.651v-23.802h15.456
			C145.024,344.289,146.18,341.758,143.5,338.664z"/>
	</g>
	<g>
		<g>
			<circle cx="97.805" cy="331.865" r="3.058"/>
			<circle cx="118.375" cy="331.865" r="3.058"/>
		</g>
		<path fill="none" stroke="#000000" stroke-width="2" stroke-linecap="round" stroke-miterlimit="10" d="M101.838,336.871
			c1.25,1.411,3.578,2.363,6.251,2.363s5.003-0.952,6.251-2.363"/>
	</g>
</g>
<g>
	<g>
		<path fill="#5CE8D9" stroke="#000000" stroke-width="3" stroke-miterlimit="10" d="M297.815,303.906l-35.266,30.538
			c-3.094,2.681-3.094,7.065,0,9.746l35.266,30.538c3.094,2.68,5.624,1.523,5.624-2.569v-15.455h23.803
			c2.558,0,4.65-2.093,4.65-4.652v-25.47c0-2.558-2.092-4.651-4.65-4.651h-23.803v-15.456
			C303.439,302.382,300.909,301.226,297.815,303.906z"/>
	</g>
	<g>
		<g>
			<circle cx="276.003" cy="338.633" r="3.058"/>
			<circle cx="296.576" cy="338.633" r="3.058"/>
		</g>
		<path fill="none" stroke="#000000" stroke-width="2" stroke-linecap="round" stroke-miterlimit="10" d="M280.037,343.638
			c1.25,1.411,3.578,2.363,6.254,2.363c2.673,0,5.003-0.952,6.252-2.363"/>
	</g>
</g>
<g>
	<g>
		<path fill="#5CE8D9" stroke="#000000" stroke-width="3" stroke-miterlimit="10" d="M489.497,374.728l35.266-30.538
			c3.094-2.68,3.094-7.065,0-9.745l-35.266-30.538c-3.094-2.68-5.624-1.523-5.624,2.569v15.455H460.07
			c-2.559,0-4.651,2.093-4.651,4.652v25.47c0,2.558,2.092,4.652,4.651,4.652h23.803v15.456
			C483.873,376.251,486.403,377.408,489.497,374.728z"/>
	</g>
	<g>
		<g>
			<circle cx="493.304" cy="338.632" r="3.058"/>
			<circle cx="513.876" cy="338.632" r="3.058"/>
		</g>
		<path fill="none" stroke="#000000" stroke-width="2" stroke-linecap="round" stroke-miterlimit="10" d="M497.337,343.638
			c1.251,1.411,3.579,2.363,6.254,2.363c2.673,0,5.003-0.952,6.252-2.363"/>
	</g>
</g>
<g>
	<g>
		<path fill="#5CE8D9" stroke="#000000" stroke-width="3" stroke-miterlimit="10" d="M643.813,339.971l30.537,35.265
			c2.68,3.094,7.064,3.094,9.745,0l30.538-35.265c2.682-3.094,1.523-5.625-2.569-5.625h-15.454v-23.802
			c0-2.558-2.092-4.651-4.652-4.651h-25.471c-2.557,0-4.65,2.093-4.65,4.651v23.802H646.38
			C642.29,334.346,641.132,336.877,643.813,339.971z"/>
	</g>
	<g>
		<g>
			<circle cx="668.937" cy="351.932" r="3.058"/>
			<path d="M692.566,351.932c0,1.69-1.367,3.059-3.059,3.059c-1.686,0-3.057-1.369-3.057-3.059c0-1.688,1.371-3.057,3.057-3.057
				C691.199,348.875,692.566,350.244,692.566,351.932z"/>
		</g>
		<path fill="none" stroke="#000000" stroke-width="2" stroke-linecap="round" stroke-miterlimit="10" d="M672.971,356.938
			c1.25,1.411,3.578,2.363,6.254,2.363c2.673,0,5.003-0.952,6.252-2.363"/>
	</g>
</g>
<g>
	<g>
		<path fill="#F994AE" stroke="#000000" stroke-width="3" stroke-miterlimit="10" d="M902.199,359.097l0.017-0.315v-56.173
			l0.026-0.188l-0.026,0.003v-0.003l-0.056,0.01l-53.473,7.32h-0.002v44.386c-2.119-0.696-4.5-0.973-6.982-0.727
			c-7.857,0.781-13.742,6.497-13.146,12.769c0.595,6.275,7.446,10.729,15.301,9.95c7.858-0.78,13.743-6.501,13.146-12.771
			c-0.01-0.106,0.014,0.105,0,0l0.019-0.313v-38.504l36.856-5.499v30.833c-2.116-0.692-4.498-0.973-6.98-0.724
			c-7.857,0.781-13.742,6.494-13.146,12.768c0.595,6.273,7.444,10.729,15.302,9.948
			C896.912,371.084,902.797,365.369,902.199,359.097C902.188,358.988,902.213,359.202,902.199,359.097z"/>
	</g>
</g>
<g>
	<g>
		<g>
			<path fill="#F994AE" stroke="#000000" stroke-width="3" stroke-miterlimit="10" d="M1092.576,359.097l0.017-0.315v-56.173
				l0.026-0.188l-0.026,0.003v-0.003l-0.056,0.01l-53.473,7.32h-0.002v44.386c-2.119-0.696-4.5-0.973-6.982-0.727
				c-7.857,0.781-13.742,6.497-13.146,12.769c0.595,6.275,7.446,10.729,15.301,9.95c7.858-0.78,13.743-6.501,13.146-12.771
				c-0.01-0.106,0.014,0.105,0,0l0.019-0.313v-38.504l36.856-5.499v30.833c-2.116-0.692-4.498-0.973-6.98-0.724
				c-7.857,0.781-13.742,6.494-13.146,12.768c0.595,6.273,7.444,10.729,15.302,9.948
				C1087.289,371.084,1093.174,365.369,1092.576,359.097C1092.564,358.988,1092.59,359.202,1092.576,359.097z"/>
		</g>
	</g>
	
		<line fill="none" stroke="#FFFFFF" stroke-width="6" stroke-linecap="round" stroke-miterlimit="10" x1="1091.964" y1="300.093" x2="1027.992" y2="376.216"/>
</g>
<g>
	<path fill="#5CE8D9" stroke="#000000" stroke-width="3" stroke-miterlimit="10" d="M1284.308,327.719l-22.354,0.001v-22.354
		c-0.002-2.497-2.023-4.519-4.52-4.521h-14.158c-2.494,0.001-4.516,2.024-4.516,4.521v22.355l-22.357-0.002
		c-2.492,0-4.518,2.023-4.518,4.519v14.157c0,2.497,2.023,4.519,4.52,4.519l22.355,0.001v22.356c0,2.495,2.023,4.518,4.518,4.517
		l14.156,0.001c2.498,0,4.52-2.026,4.52-4.519v-22.355h22.355c2.494-0.001,4.516-2.023,4.518-4.518l-0.002-14.16
		C1288.827,329.744,1286.804,327.721,1284.308,327.719z"/>
	<g>
		<g>
			<circle cx="1240.237" cy="337.196" r="3.008"/>
			<path d="M1263.481,337.196c0,1.663-1.346,3.009-3.008,3.009c-1.658,0-3.008-1.346-3.008-3.009c0-1.661,1.35-3.007,3.008-3.007
				C1262.136,334.189,1263.481,335.536,1263.481,337.196z"/>
		</g>
		<path fill="none" stroke="#000000" stroke-width="2" stroke-linecap="round" stroke-miterlimit="10" d="M1244.206,342.12
			c1.23,1.388,3.52,2.324,6.15,2.324s4.922-0.937,6.15-2.324"/>
	</g>
</g>
<g>
	<g>
		<g>
			<rect x="1590.284" y="320.072" fill="#070F1B" width="70.334" height="39.458"/>
			
				<rect x="1590.284" y="320.072" fill="#5CE8D9" stroke="#000000" stroke-width="3" stroke-miterlimit="10" width="56.266" height="39.458"/>
			<path fill="#FFFFFF" stroke="#000000" stroke-width="3" stroke-miterlimit="10" d="M1664.734,327.122v-10.419h-77.54v45.228
				h77.54v-10.417h10.294v-24.392H1664.734z M1657.872,356.561h-64.155v-34.486h64.155V356.561z"/>
		</g>
	</g>
</g>
<g>
	<g>
		<g>
			<rect x="1780.662" y="320.072" fill="#070F1B" width="70.334" height="39.458"/>
			<rect x="1780.662" y="320.072" fill="#F63E3C" width="17.354" height="39.458"/>
			<path fill="#FFFFFF" stroke="#000000" stroke-width="3" stroke-miterlimit="10" d="M1855.112,327.122v-10.419h-77.54v45.228
				h77.54v-10.417h10.294v-24.392H1855.112z M1848.25,356.561h-64.155v-34.486h64.155V356.561z"/>
		</g>
	</g>
</g>
<g>
	<path fill="#FFFFFF" stroke="#000000" stroke-width="3" stroke-miterlimit="10" d="M129.59,547.398
		c-0.309,0.311-0.602,0.631-0.876,0.959l-28.982-28.981c0.331-0.273,0.652-0.563,0.962-0.873c5.225-5.223,5.225-13.695,0-18.92
		s-13.695-5.225-18.921,0c-2.802,2.802-4.098,6.541-3.895,10.209c-3.669-0.203-7.405,1.092-10.208,3.895
		c-5.225,5.227-5.225,13.697,0,18.922c5.225,5.224,13.695,5.224,18.919,0c0.31-0.311,0.601-0.629,0.876-0.961l28.983,28.983
		c-0.331,0.273-0.653,0.563-0.963,0.873c-5.226,5.225-5.226,13.695,0,18.92c5.225,5.225,13.694,5.225,18.921,0
		c2.803-2.803,4.099-6.539,3.895-10.209c3.669,0.205,7.406-1.094,10.209-3.896c5.225-5.223,5.225-13.693,0-18.92
		C143.285,542.174,134.813,542.174,129.59,547.398z"/>
</g>
<g>
	<g>
		<path d="M289.929,586.153c0,4.717,3.823,8.54,8.539,8.54s8.539-3.823,8.539-8.54H289.929z"/>
		<g>
			<path fill="#FFEE6C" stroke="#000000" stroke-width="3" stroke-miterlimit="10" d="M332.542,526.616
				c0-18.824-15.256-34.077-34.075-34.077s-34.075,15.253-34.075,34.077c0,13.536,7.893,25.226,19.326,30.726v16.202h29.5v-16.202
				C324.65,551.842,332.542,540.152,332.542,526.616z"/>
		</g>
		<g>
			
				<rect x="281.801" y="562.982" fill="#A0A0A0" stroke="#000000" stroke-width="2" stroke-miterlimit="10" width="33.334" height="23.171"/>
		</g>
		<g>
			<g>
				<g>
					<rect x="281.801" y="567.504" width="33.334" height="3.698"/>
				</g>
			</g>
			<g>
				<g>
					<rect x="281.801" y="576.567" width="33.334" height="3.701"/>
				</g>
			</g>
		</g>
		<g>
			<g>
				<circle cx="287.936" cy="524.756" r="3.131"/>
				<circle cx="308.997" cy="524.756" r="3.131"/>
			</g>
			<path fill="none" stroke="#000000" stroke-width="2" stroke-linecap="round" stroke-miterlimit="10" d="M292.065,529.88
				c1.282,1.443,3.666,2.419,6.402,2.419s5.123-0.976,6.4-2.419"/>
		</g>
	</g>
</g>
<g>
	<g>
		<g>
			<g>
				<g>
					<g>
						<path fill="#FFEE6C" stroke="#000000" stroke-width="3" stroke-miterlimit="10" d="M514.112,536.815h-11.645v-20.922
							c0-4.441-3.536-8.053-7.879-8.053h-11.483c-4.345,0-7.88,3.611-7.88,8.053v20.922H463.58v-20.922
							c0-11.007,8.759-19.958,19.525-19.958h11.483c10.765,0,19.524,8.951,19.524,19.958V536.815z"/>
					</g>
					<path fill="#5CE8D9" stroke="#000000" stroke-width="3" stroke-miterlimit="10" d="M453.555,532.804v38.189
						c0,6.396,5.068,11.574,11.324,11.574h47.935c6.252,0,11.32-5.178,11.32-11.574v-38.189H453.555z"/>
				</g>
			</g>
		</g>
		<g>
			<g>
				<g>
					<g>
						<ellipse fill="#F994AE" cx="508.746" cy="559.852" rx="5.901" ry="3.975"/>
						<ellipse fill="#F994AE" cx="468.943" cy="559.852" rx="5.901" ry="3.975"/>
					</g>
					<g>
						<g>
							<g>
								<circle cx="474.788" cy="553.08" r="5.846"/>
							</g>
							<circle fill="#FFFFFF" cx="472.712" cy="550.646" r="1.769"/>
						</g>
						<g>
							<g>
								<circle cx="502.899" cy="553.08" r="5.847"/>
							</g>
							<circle fill="#FFFFFF" cx="500.823" cy="550.646" r="1.768"/>
						</g>
					</g>
					<g>
						<path fill="none" stroke="#000000" stroke-width="2" stroke-linecap="round" stroke-miterlimit="10" d="M488.843,563.314
							c0,2.664-2.159,4.824-4.823,4.824c-2.665,0-4.825-2.16-4.825-4.824"/>
						<path fill="none" stroke="#000000" stroke-width="2" stroke-linecap="round" stroke-miterlimit="10" d="M498.494,563.314
							c0,2.664-2.16,4.824-4.826,4.824c-2.665,0-4.825-2.16-4.825-4.824v-1.533"/>
					</g>
				</g>
			</g>
		</g>
	</g>
</g>
<g>
	<g>
		<g>
			<path fill="#F63E3C" stroke="#000000" stroke-width="3" stroke-miterlimit="10" d="M679.121,507.049
				c-27.708,0-50.171,22.46-50.171,50.168h39.17c0-6.075,4.926-11.001,11.001-11.001c6.076,0,11.002,4.926,11.002,11.001h39.168
				C729.291,529.509,706.83,507.049,679.121,507.049z"/>
			<path fill="#F994AE" stroke="#000000" stroke-width="2" stroke-miterlimit="10" d="M679.121,515.002
				c-23.314,0-42.214,18.899-42.214,42.215h31.213c0-6.075,4.926-11.001,11.001-11.001c6.076,0,11.002,4.926,11.002,11.001h31.213
				C721.336,533.901,702.436,515.002,679.121,515.002z"/>
			<path fill="#8BDAEB" stroke="#000000" stroke-width="2" stroke-miterlimit="10" d="M679.121,523
				c-18.897,0-34.217,15.321-34.217,34.217h23.216c0-6.075,4.926-11.001,11.001-11.001c6.076,0,11.002,4.926,11.002,11.001h23.215
				C713.338,538.321,698.018,523,679.121,523z"/>
			<path fill="#FFEE6C" stroke="#000000" stroke-width="2" stroke-miterlimit="10" d="M679.121,530.547
				c-14.728,0-26.669,11.939-26.669,26.67h15.668c0-6.075,4.926-11.001,11.001-11.001c6.076,0,11.002,4.926,11.002,11.001h15.668
				C705.791,542.486,693.85,530.547,679.121,530.547z"/>
			<path fill="#8B51AE" stroke="#000000" stroke-width="2" stroke-miterlimit="10" d="M679.121,538.397
				c-10.395,0-18.819,8.426-18.819,18.819h7.818c0-6.075,4.926-11.001,11.001-11.001c6.076,0,11.002,4.926,11.002,11.001h7.818
				C697.941,546.823,689.515,538.397,679.121,538.397z"/>
		</g>
	</g>
</g>
<g>
	<g>
		<path fill="#F994AE" stroke="#000000" stroke-width="1.5" stroke-miterlimit="10" d="M838.764,527.396v40.195
			c0,15.85,12.848,14.243,28.697,14.243c15.849,0,28.695,1.606,28.695-14.243v-40.195H838.764z"/>
		
			<rect x="838.764" y="533.494" fill="#FFFFFF" stroke="#000000" stroke-width="1.5" stroke-miterlimit="10" width="57.393" height="9.867"/>
		<path fill="#FFEE6C" stroke="#000000" stroke-width="1.5" stroke-miterlimit="10" d="M891.616,527.013
			c2.607-11.337-2.509-29.24-2.509-29.24l-8.998,11.346c0,0-5.121-1.805-12.648-1.899c-7.529,0.095-12.65,1.899-12.65,1.899
			l-8.998-11.346c0,0-5.115,17.903-2.508,29.24H891.616z"/>
		<g>
			<path fill="#E0C438" d="M851.745,510.103l-4.69-6.063c0,0-1.602,3.548-1.486,7.093
				C845.568,511.132,848.653,512.65,851.745,510.103z"/>
			<path fill="#E0C438" d="M883.174,510.103l4.689-6.063c0,0,1.604,3.548,1.488,7.093
				C889.352,511.132,886.266,512.65,883.174,510.103z"/>
		</g>
		<g>
			<g>
				<path fill="#FFEE6C" stroke="#000000" stroke-width="1.5" stroke-miterlimit="10" d="M848.192,525.958
					c-2.854,0-5.168,0.346-5.168,3.201v11.077c0,2.854,2.313,5.168,5.168,5.168s5.168-2.313,5.168-5.168v-11.077
					C853.36,526.304,851.047,525.958,848.192,525.958z"/>
				<g>
					<line fill="#FFE65B" stroke="#000000" stroke-miterlimit="10" x1="846.22" y1="539.116" x2="846.22" y2="544.828"/>
					<line fill="#FFE65B" stroke="#000000" stroke-miterlimit="10" x1="850.165" y1="539.116" x2="850.165" y2="544.828"/>
				</g>
			</g>
			<g>
				<path fill="#FFEE6C" stroke="#000000" stroke-width="1.5" stroke-miterlimit="10" d="M886.729,525.958
					c-2.857,0-5.17,0.346-5.17,3.201v11.077c0,2.854,2.313,5.168,5.17,5.168c2.852,0,5.168-2.313,5.168-5.168v-11.077
					C891.896,526.304,889.58,525.958,886.729,525.958z"/>
				<g>
					<line fill="#FFE65B" stroke="#000000" stroke-miterlimit="10" x1="884.753" y1="539.116" x2="884.753" y2="544.828"/>
					<line fill="#FFE65B" stroke="#000000" stroke-miterlimit="10" x1="888.701" y1="539.116" x2="888.701" y2="544.828"/>
				</g>
			</g>
		</g>
		<g>
			<g>
				<g>
					<circle cx="856.973" cy="523.033" r="4.363"/>
				</g>
				<circle fill="#FFFFFF" cx="855.425" cy="521.217" r="1.319"/>
			</g>
			<g>
				<g>
					<circle cx="877.946" cy="523.033" r="4.363"/>
				</g>
				<circle fill="#FFFFFF" cx="876.397" cy="521.217" r="1.319"/>
			</g>
		</g>
		<path fill="none" stroke="#000000" stroke-width="4" stroke-miterlimit="10" d="M896.156,532.877h7.094
			c3.79,0,6.865,3.073,6.865,6.863v14.296c0,3.792-3.075,6.865-6.865,6.865h-7.094"/>
		<path fill="#FFFFFF" d="M848.192,550.996c0,1.853-1.503,3.354-3.353,3.354l0,0c-1.854,0-3.355-1.502-3.355-3.354l0,0
			c0-1.851,1.502-3.351,3.355-3.351l0,0C846.689,547.646,848.192,549.146,848.192,550.996L848.192,550.996z"/>
		<path fill="#FFFFFF" d="M851.545,572.975c0,1.851-1.5,3.354-3.353,3.354l0,0c-1.851,0-3.353-1.503-3.353-3.354l0,0
			c0-1.853,1.502-3.353,3.353-3.353l0,0C850.045,569.622,851.545,571.122,851.545,572.975L851.545,572.975z"/>
		<path fill="#FFFFFF" d="M883.103,562.964c0,1.85-1.5,3.353-3.353,3.353l0,0c-1.851,0-3.354-1.503-3.354-3.353l0,0
			c0-1.854,1.503-3.354,3.354-3.354l0,0C881.603,559.61,883.103,561.11,883.103,562.964L883.103,562.964z"/>
		<path fill="#FFFFFF" d="M893.434,558.249c0,1.854-1.5,3.354-3.353,3.354l0,0c-1.853,0-3.353-1.5-3.353-3.354l0,0
			c0-1.853,1.5-3.354,3.353-3.354l0,0C891.934,554.895,893.434,556.396,893.434,558.249L893.434,558.249z"/>
		<path fill="#FFFFFF" d="M860.327,558.71c0,1.851-1.503,3.353-3.355,3.353l0,0c-1.851,0-3.353-1.502-3.353-3.353l0,0
			c0-1.853,1.502-3.354,3.353-3.354l0,0C858.824,555.355,860.327,556.857,860.327,558.71L860.327,558.71z"/>
		<path fill="#FFFFFF" d="M870.813,570.603c0,1.853-1.502,3.353-3.352,3.353l0,0c-1.854,0-3.354-1.5-3.354-3.353l0,0
			c0-1.853,1.5-3.353,3.354-3.353l0,0C869.311,567.25,870.813,568.75,870.813,570.603L870.813,570.603z"/>
		<path fill="#FFFFFF" d="M876.938,549.712c0,1.853-1.502,3.355-3.354,3.355l0,0c-1.851,0-3.353-1.503-3.353-3.355l0,0
			c0-1.851,1.502-3.353,3.353-3.353l0,0C875.436,546.359,876.938,547.861,876.938,549.712L876.938,549.712z"/>
		<path fill="#FFFFFF" d="M884.913,576.328c0,1.853-1.503,3.354-3.354,3.354l0,0c-1.854,0-3.354-1.502-3.354-3.354l0,0
			c0-1.854,1.5-3.354,3.354-3.354l0,0C883.41,572.975,884.913,574.475,884.913,576.328L884.913,576.328z"/>
	</g>
</g>
<g>
	<g>
		<path fill="#FFEE6C" stroke="#000000" stroke-width="3" stroke-miterlimit="10" d="M1603.734,567.201
			c0.077-2.286,0.785-4.828,2.127-7.627c1.341-2.797,2.878-4.789,4.611-5.971c8.198,4.336,15.215,6.503,21.048,6.503
			c2.285,0,4.098-0.413,5.438-1.241c1.34-0.829,2.013-2.03,2.013-3.606c0-2.443-1.775-4.335-5.323-5.676l-11.232-4.021
			c-10.565-4.021-15.844-10.364-15.844-19.038c0-5.202,1.674-9.616,5.024-13.243c3.351-3.624,7.744-5.951,13.183-6.978v-9.459
			c1.498-0.393,3.706-0.591,6.623-0.591c2.916,0,5.124,0.198,6.621,0.591v9.343c5.596,0.63,11.824,2.324,18.683,5.083
			c0,2.682-0.59,5.343-1.774,7.982c-1.181,2.642-2.719,4.75-4.611,6.325c-7.883-3.15-13.952-4.729-18.21-4.729
			c-4.256,0-6.384,1.499-6.384,4.494c0,1.105,0.434,1.972,1.301,2.601c0.867,0.633,2.248,1.302,4.138,2.011l10.879,4.138
			c10.957,4.181,16.436,10.998,16.436,20.457c0,5.203-1.931,9.56-5.794,13.066c-3.862,3.508-8.908,5.734-15.135,6.68v8.986
			c-1.183,0.315-3.39,0.474-6.621,0.474c-3.234,0-5.438-0.158-6.623-0.474v-8.986
			C1615.716,573.112,1608.857,570.748,1603.734,567.201z"/>
	</g>
</g>
<g>
	<g>
		<g>
			<g>
				<polygon fill="#FFFFFF" stroke="#000000" stroke-width="3" stroke-miterlimit="10" points="146.996,724.538 124.223,724.538 
					124.223,701.766 91.722,701.766 91.722,724.538 68.952,724.538 68.952,757.039 91.722,757.039 91.722,779.813 124.223,779.813 
					124.223,757.039 146.996,757.039 				"/>
				<g>
					<polygon fill="#8B51AE" points="117.605,718.336 107.973,706.298 98.341,718.336 					"/>
					<polygon fill="#8B51AE" points="98.341,763.238 107.973,775.278 117.605,763.238 					"/>
				</g>
				<g>
					<polygon fill="#8B51AE" points="85.523,731.156 73.484,740.789 85.523,750.421 					"/>
					<polygon fill="#8B51AE" points="130.424,750.421 142.462,740.788 130.424,731.156 					"/>
				</g>
			</g>
		</g>
	</g>
</g>
<g>
	<g>
		<path fill="#F390B2" stroke="#000000" stroke-width="3" stroke-miterlimit="10" d="M1397.572,722.041v19.97
			c0,19.817,16.063,35.881,35.88,35.881c19.816,0,35.881-16.063,35.881-35.881v-19.97H1397.572z"/>
		
			<rect x="1397.572" y="730.896" fill="#FFFFFF" stroke="#000000" stroke-width="3" stroke-miterlimit="10" width="71.761" height="12.34"/>
		<g>
			<path fill="#F390B2" d="M1469.648,749.571v-5.87h9.141c3.659,0,6.636-2.977,6.636-6.635s-2.977-6.634-6.636-6.634h-9.141v-5.872
				h9.249c6.896,0,12.506,5.61,12.506,12.506s-5.61,12.505-12.506,12.505H1469.648z"/>
			<path d="M1478.897,725.561c6.354,0,11.506,5.151,11.506,11.506c0,6.355-5.151,11.505-11.506,11.505h-8.249v-3.87h8.141
				c4.217,0,7.636-3.418,7.636-7.635c0-4.215-3.419-7.634-7.636-7.634h-8.141v-3.872H1478.897 M1478.897,723.561h-8.249h-2v2v3.872
				v2h2h8.141c3.107,0,5.636,2.527,5.636,5.634c0,3.107-2.528,5.635-5.636,5.635h-8.141h-2v2v3.87v2h2h8.249
				c7.447,0,13.506-6.059,13.506-13.505C1492.403,729.619,1486.345,723.561,1478.897,723.561L1478.897,723.561z"/>
		</g>
	</g>
</g>
<g>
	<g>
		
			<rect x="1028.021" y="699.242" fill="#A0A0A0" stroke="#000000" stroke-width="2" stroke-miterlimit="10" width="63.913" height="46.751"/>
		<g>
			
				<rect x="1022.438" y="712.337" fill="#A0A0A0" stroke="#000000" stroke-width="2" stroke-miterlimit="10" width="5.587" height="20.562"/>
			
				<rect x="1018.772" y="717.8" fill="#A0A0A0" stroke="#000000" stroke-width="2" stroke-miterlimit="10" width="3.665" height="9.636"/>
			
				<rect x="1091.938" y="712.337" fill="#A0A0A0" stroke="#000000" stroke-width="2" stroke-miterlimit="10" width="5.581" height="20.562"/>
			
				<rect x="1097.519" y="717.8" fill="#A0A0A0" stroke="#000000" stroke-width="2" stroke-miterlimit="10" width="3.663" height="9.636"/>
		</g>
		
			<rect x="1044.837" y="745.993" fill="#A0A0A0" stroke="#000000" stroke-width="2" stroke-miterlimit="10" width="30.283" height="30.819"/>
		<g>
			<g>
				
					<rect x="1075.12" y="756.593" fill="#A0A0A0" stroke="#000000" stroke-width="2" stroke-miterlimit="10" width="13.246" height="7.748"/>
				<polygon fill="#A0A0A0" stroke="#000000" stroke-width="2" stroke-miterlimit="10" points="1100.634,757.458 1100.634,754.33 
					1088.366,754.33 1088.366,766.603 1100.634,766.603 1100.634,763.475 1094.617,763.475 1094.617,757.458 				"/>
			</g>
			<g>
				
					<rect x="1031.591" y="756.593" fill="#A0A0A0" stroke="#000000" stroke-width="2" stroke-miterlimit="10" width="13.246" height="7.748"/>
				<polygon fill="#A0A0A0" stroke="#000000" stroke-width="2" stroke-miterlimit="10" points="1019.32,763.475 1019.32,766.603 
					1031.591,766.603 1031.591,754.33 1019.32,754.33 1019.32,757.458 1025.337,757.458 1025.337,763.475 				"/>
			</g>
		</g>
		<g>
			<polygon fill="#A0A0A0" stroke="#000000" stroke-width="2" stroke-miterlimit="10" points="1047.068,776.813 1047.068,785.971 
				1039.296,785.971 1039.296,789.363 1057.169,789.363 1057.169,776.813 			"/>
			<polygon fill="#A0A0A0" stroke="#000000" stroke-width="2" stroke-miterlimit="10" points="1072.886,776.813 1072.886,785.971 
				1080.661,785.971 1080.661,789.363 1062.79,789.363 1062.79,776.813 			"/>
		</g>
		
			<rect x="1051.432" y="752.468" fill="#8BDAEB" stroke="#000000" stroke-width="2" stroke-miterlimit="10" width="17.093" height="17.095"/>
		<g>
			<path d="M1051.604,732.898c0,4.623,3.75,8.371,8.375,8.371c4.62,0,8.375-3.748,8.375-8.371H1051.604z"/>
			<g>
				<g>
					<path d="M1051.855,724.119c0,4.624-3.753,8.371-8.375,8.371s-8.375-3.747-8.375-8.371c0-4.626,3.753-8.373,8.375-8.373
						S1051.855,719.493,1051.855,724.119z"/>
					<path d="M1084.849,724.119c0,4.624-3.75,8.371-8.375,8.371c-4.622,0-8.374-3.747-8.374-8.371c0-4.626,3.752-8.373,8.374-8.373
						C1081.099,715.746,1084.849,719.493,1084.849,724.119z"/>
				</g>
				<circle fill="#FFFFFF" cx="1040.672" cy="720.979" r="3.137"/>
				<circle fill="#FFFFFF" cx="1073.666" cy="720.979" r="3.137"/>
			</g>
		</g>
	</g>
</g>
<g>
	<g>
		<g>
			<path fill="#8BDAEB" stroke="#000000" stroke-width="3" stroke-miterlimit="10" d="M342.924,738.274
				c0-19.947-6.992-36.117-15.614-36.117c-5.895,0-7.9,7.553-10.559,18.697c-4.81-1.197-12.997-1.847-18.234-1.847
				c-5.235,0-13.422,0.649-18.233,1.847c-2.657-11.145-4.665-18.697-10.557-18.697c-8.624,0-15.614,16.17-15.614,36.117
				c0,0-2.984,44.095,44.405,44.095C345.908,782.369,342.924,738.274,342.924,738.274z"/>
			<ellipse fill="#FFFFFF" cx="298.517" cy="758.451" rx="22.24" ry="16.253"/>
			<g>
				<circle fill="#F994AE" cx="323.759" cy="757.134" r="7.485"/>
				<circle fill="#F994AE" cx="273.277" cy="757.134" r="7.484"/>
			</g>
			<g>
				<g>
					<g>
						<circle cx="280.691" cy="746.1" r="7.415"/>
					</g>
					<circle fill="#FFFFFF" cx="278.057" cy="743.013" r="2.243"/>
				</g>
				<g>
					<g>
						<circle cx="316.344" cy="746.1" r="7.415"/>
					</g>
					<circle fill="#FFFFFF" cx="313.71" cy="743.013" r="2.242"/>
				</g>
			</g>
			<g>
				<path fill="none" stroke="#000000" stroke-width="2" stroke-linecap="round" stroke-miterlimit="10" d="M298.517,759.08
					c0,3.379-2.739,6.119-6.118,6.119c-3.38,0-6.119-2.74-6.119-6.119"/>
				<path fill="none" stroke="#000000" stroke-width="2" stroke-linecap="round" stroke-miterlimit="10" d="M310.756,759.08
					c0,3.379-2.739,6.119-6.12,6.119c-3.38,0-6.119-2.74-6.119-6.119v-1.944"/>
			</g>
			<g>
				<g>
					<path fill="#66A1AA" d="M274.23,721.442c0,0-1.729-11.986-5.555-11.986c-5.103,0-6.612,14.386-6.612,14.386
						S268.697,726.834,274.23,721.442z"/>
				</g>
				<g>
					<path fill="#66A1AA" d="M322.804,721.442c0,0,1.731-11.986,5.557-11.986c5.1,0,6.611,14.386,6.611,14.386
						S328.337,726.834,322.804,721.442z"/>
				</g>
			</g>
			<ellipse fill="#8B51AE" cx="298.519" cy="753.515" rx="7.485" ry="4.531"/>
		</g>
	</g>
</g>
<g>
	<g>
		<rect x="76.991" y="964.749" width="62.458" height="14.085"/>
		<polygon fill="#A0A0A0" stroke="#000000" stroke-width="2" stroke-miterlimit="10" points="130.117,939.734 86.298,939.734 
			78.385,963.756 138.029,963.756 		"/>
		<ellipse cx="108.208" cy="950.494" rx="9.806" ry="4.525"/>
		<path fill="#5CE8D9" stroke="#000000" stroke-miterlimit="10" d="M121.971,958.82c0,1.563-2.744,2.829-6.127,2.829
			s-6.127-1.266-6.127-2.829c0-1.56,2.744-2.825,6.127-2.825S121.971,957.261,121.971,958.82z"/>
		<ellipse fill="#F994AE" stroke="#000000" stroke-miterlimit="10" cx="126.025" cy="953.003" rx="6.126" ry="2.828"/>
		<path fill="#5B3775" stroke="#000000" stroke-miterlimit="10" d="M103.052,927.956v24.211c1.499,0.427,3.264,0.675,5.156,0.675
			c1.89,0,3.656-0.248,5.154-0.675v-24.211H103.052z"/>
		<circle fill="#F63E3C" stroke="#000000" stroke-width="2" stroke-miterlimit="10" cx="108.207" cy="916.737" r="12.816"/>
	</g>
</g>
<g>
	<g>
		<g>
			<g>
				<path fill="#8B51AE" stroke="#000000" stroke-width="2" stroke-miterlimit="10" d="M1851.627,740.744
					c0.003,16.666-13.509,30.181-30.178,30.176c-16.665,0.003-30.179-13.51-30.179-30.176
					c-0.001-16.667,13.511-30.181,30.179-30.179C1838.114,710.565,1851.627,724.079,1851.627,740.744z"/>
				<path fill="#C9A54B" stroke="#000000" stroke-linejoin="bevel" stroke-miterlimit="10" d="M1844.755,721.656
					c1.987,2.413,3.604,5.136,4.771,8.087c-0.002,0-0.002,0-0.005,0c9.487,2.233,15.518,5.575,15.518,9.312
					c-0.002,6.724-19.516,12.173-43.589,12.171c-24.074,0-43.588-5.447-43.589-12.172c0-3.735,6.028-7.075,15.512-9.311
					c1.166-2.951,2.782-5.674,4.769-8.084c-19.286,3.02-32.686,9.67-32.686,17.395c0,10.565,25.069,19.127,55.994,19.128
					c30.924,0,55.994-8.563,55.994-19.127C1877.443,731.334,1864.043,724.679,1844.755,721.656z"/>
				<path fill="#FFEE6C" stroke="#000000" stroke-linejoin="bevel" stroke-miterlimit="10" d="M1869.79,738.323
					c0-6.035-9.308-11.321-23.244-14.244c1.183,1.766,2.188,3.663,2.979,5.664c-0.002,0-0.002,0-0.005,0
					c9.487,2.233,15.518,5.575,15.518,9.312c-0.002,6.724-19.516,12.173-43.589,12.171c-24.074,0-43.588-5.447-43.589-12.172
					c0-3.735,6.028-7.075,15.512-9.311c0.792-2.003,1.797-3.898,2.977-5.664c-13.934,2.92-23.242,8.209-23.24,14.242
					c-0.001,9.203,21.642,16.665,48.342,16.665C1848.147,754.988,1869.791,747.526,1869.79,738.323z"/>
			</g>
		</g>
		<g>
			<g>
				<circle cx="1811.498" cy="736.33" r="2.958"/>
				<path d="M1834.356,736.33c0,1.635-1.323,2.958-2.958,2.958c-1.631,0-2.958-1.323-2.958-2.958c0-1.634,1.327-2.957,2.958-2.957
					C1833.033,733.373,1834.356,734.696,1834.356,736.33z"/>
			</g>
			<path fill="none" stroke="#000000" stroke-width="2" stroke-linecap="round" stroke-miterlimit="10" d="M1815.4,741.172
				c1.21,1.364,3.461,2.285,6.049,2.285c2.586,0,4.84-0.921,6.048-2.285"/>
		</g>
	</g>
</g>
<g>
	<g>
		<path fill="#FFFFFF" d="M1293.71,737.652c-1.422-22.847-19.391-34.217-43.354-34.397c-23.961,0.181-41.932,11.551-43.355,34.397
			c-1.488,23.891-0.078,43.335,43.355,43.43C1293.79,780.987,1295.202,761.543,1293.71,737.652z"/>
		<path d="M1295.651,744.941c-1.381-28.861-18.256-46.248-45.176-46.512c-0.039,0-0.08,0.002-0.119,0.002
			c-0.041,0-0.08-0.002-0.121-0.002c-26.92,0.264-43.793,17.65-45.174,46.512c0,0-1.314,13.369,5.119,22.187l0,0
			c1.242,1.85,2.74,3.635,4.547,5.365c7.301,6.994,18.893,10.413,35.391,10.455c0.08,0,0.156-0.002,0.238-0.002
			c0.08,0,0.158,0.002,0.238,0.002c16.498-0.042,28.09-3.461,35.389-10.455c1.809-1.73,3.307-3.516,4.547-5.365c0,0,0,0,0.002,0
			C1296.966,758.311,1295.651,744.941,1295.651,744.941z M1283.423,761.304c0,0,3.477,5.292-0.057,8.925
			c-6.582,6.306-17.314,9.391-32.771,9.434c-0.08,0-0.158-0.005-0.238-0.005c-0.082,0-0.158,0.005-0.238,0.005
			c-15.457-0.043-26.189-3.128-32.773-9.434c-3.531-3.633-0.055-8.925-0.055-8.925s-9.068-0.98-8.621-16.19
			c0.131-4.521,0.848-8.726,1.854-12.61c2.594-6.475,7.715-11.537,15.664-11.537c12.152,0,14.648,5.714,15.717,18.083
			c1.072,12.37,8.332,11.979,8.332,11.979s0.045,0.003,0.121,0c0.074,0.003,0.119,0,0.119,0s7.262,0.391,8.332-11.979
			c1.07-12.369,3.564-18.083,15.719-18.083c7.949,0,13.068,5.063,15.662,11.537c1.006,3.885,1.725,8.089,1.855,12.61
			C1292.491,760.323,1283.423,761.304,1283.423,761.304z"/>
		<path fill="#FFEE6C" d="M1250.354,738.257c-3.531-0.014-5.922,1.869-5.922,1.869l5.922,6.403l5.926-6.403
			C1256.28,740.126,1253.886,738.243,1250.354,738.257z"/>
		<g>
			<g>
				<g>
					<path d="M1232.206,740.688c0,3.441-2.787,6.23-6.227,6.23c-3.443,0-6.232-2.789-6.232-6.23c0-3.44,2.789-6.229,6.232-6.229
						C1229.419,734.46,1232.206,737.248,1232.206,740.688z"/>
				</g>
				<circle fill="#FFFFFF" cx="1223.765" cy="738.095" r="1.885"/>
			</g>
			<g>
				<g>
					<circle cx="1274.734" cy="740.688" r="6.229"/>
				</g>
				<circle fill="#FFFFFF" cx="1272.522" cy="738.095" r="1.885"/>
			</g>
		</g>
	</g>
</g>
<g>
	<g>
		<g>
			<path fill="#5CE8D9" stroke="#000000" stroke-width="3" stroke-miterlimit="10" d="M536.72,743.685
				c0,19.905-21.451,36.041-47.911,36.041c-26.46,0-47.91-16.136-47.91-36.041c0-19.901,21.45-36.038,47.91-36.038
				C515.269,707.646,536.72,723.783,536.72,743.685z"/>
			<g>
				<ellipse fill="#F63E3C" cx="457.014" cy="748.98" rx="8.556" ry="5.633"/>
				<ellipse fill="#F63E3C" cx="520.605" cy="748.98" rx="8.556" ry="5.633"/>
			</g>
			<path fill="none" stroke="#000000" stroke-width="3" stroke-miterlimit="10" d="M462.287,752.688c0,0,23.762,18.245,53.045-0.789
				"/>
		</g>
		<g>
			<g>
				<g>
					<circle cx="464.942" cy="719.698" r="17.928"/>
				</g>
				<path fill="#FFFFFF" d="M463.997,712.23c0,2.996-2.424,5.427-5.421,5.427c-2.999,0-5.422-2.431-5.422-5.427
					c0-2.994,2.423-5.426,5.422-5.426C461.572,706.805,463.997,709.236,463.997,712.23z"/>
			</g>
			<g>
				<g>
					<circle cx="512.676" cy="719.698" r="17.929"/>
				</g>
				<path fill="#FFFFFF" d="M511.731,712.23c0,2.996-2.425,5.427-5.422,5.427c-3,0-5.423-2.431-5.423-5.427
					c0-2.994,2.423-5.426,5.423-5.426C509.307,706.805,511.731,709.236,511.731,712.23z"/>
			</g>
		</g>
	</g>
</g>
<g>
	<g>
		<circle fill="#F63E3C" stroke="#000000" stroke-width="3" stroke-miterlimit="10" cx="1440.735" cy="941.377" r="32.426"/>
	</g>
	<g>
		<g>
			<circle cx="1430.449" cy="927.806" r="3.058"/>
			<path d="M1454.079,927.806c0,1.69-1.369,3.059-3.059,3.059c-1.686,0-3.057-1.368-3.057-3.059c0-1.688,1.371-3.057,3.057-3.057
				C1452.71,924.749,1454.079,926.117,1454.079,927.806z"/>
		</g>
		<path fill="none" stroke="#000000" stroke-width="2" stroke-linecap="round" stroke-miterlimit="10" d="M1434.481,932.812
			c1.252,1.41,3.578,2.363,6.254,2.363c2.674,0,5.004-0.953,6.252-2.363"/>
	</g>
</g>
<g>
	<g>
		<g>
			<path fill="#FFEE6C" stroke="#070F1B" stroke-miterlimit="10" d="M1066.184,971.893c-3.414-1.796-9-1.796-12.413,0l-15.055,7.914
				c-3.413,1.796-5.674,0.153-5.022-3.646l2.875-16.767c0.651-3.8-1.073-9.114-3.836-11.807l-12.18-11.873
				c-2.763-2.691-1.898-5.348,1.918-5.903l16.831-2.447c3.817-0.554,8.337-3.838,10.044-7.295l7.529-15.255
				c1.707-3.459,4.499-3.459,6.206,0l7.529,15.255c1.707,3.457,6.227,6.741,10.043,7.295l16.832,2.447
				c3.818,0.556,4.681,3.212,1.919,5.903l-12.181,11.873c-2.762,2.692-4.488,8.007-3.836,11.807l2.875,16.767
				c0.652,3.8-1.606,5.442-5.021,3.646L1066.184,971.893z"/>
			<path fill="none" stroke="#000000" stroke-width="3" stroke-miterlimit="10" d="M1066.184,971.893c-3.414-1.796-9-1.796-12.413,0
				l-15.055,7.914c-3.413,1.796-5.674,0.153-5.022-3.646l2.875-16.767c0.651-3.8-1.073-9.114-3.836-11.807l-12.18-11.873
				c-2.763-2.691-1.898-5.348,1.918-5.903l16.831-2.447c3.817-0.554,8.337-3.838,10.044-7.295l7.529-15.255
				c1.707-3.459,4.499-3.459,6.206,0l7.529,15.255c1.707,3.457,6.227,6.741,10.043,7.295l16.832,2.447
				c3.818,0.556,4.681,3.212,1.919,5.903l-12.181,11.873c-2.762,2.692-4.488,8.007-3.836,11.807l2.875,16.767
				c0.652,3.8-1.606,5.442-5.021,3.646L1066.184,971.893z"/>
		</g>
		<g>
			<g>
				<circle cx="1049.302" cy="935.658" r="3.173"/>
				<circle cx="1070.655" cy="935.658" r="3.173"/>
			</g>
			<path fill="none" stroke="#000000" stroke-width="2" stroke-linecap="round" stroke-miterlimit="10" d="M1053.488,940.854
				c1.299,1.464,3.715,2.452,6.491,2.452c2.775,0,5.194-0.988,6.489-2.452"/>
		</g>
	</g>
</g>
<g>
	<g>
		<path fill="#FFFFFF" stroke="#000000" stroke-width="3" stroke-miterlimit="10" d="M1286.956,933.595
			c0-20.273-16.436-36.709-36.709-36.709c-20.271,0-36.707,16.436-36.707,36.709v37.193c0,6.075,4.924,10.999,10.998,10.999
			c3.49,0,6.592-1.627,8.605-4.159c2.016,2.532,5.119,4.159,8.605,4.159c3.488,0,6.592-1.627,8.607-4.159
			c2.014,2.532,5.117,4.159,8.605,4.159s6.59-1.627,8.605-4.159c2.016,2.532,5.117,4.159,8.604,4.159c6.076,0,11-4.924,11-10.999
			L1286.956,933.595z"/>
		<g>
			<g>
				<g>
					<path d="M1250.356,944.771c-5.748,0-10.491-4.386-11.056-9.986h22.109C1260.848,940.386,1256.103,944.771,1250.356,944.771z"/>
				</g>
			</g>
			<path fill="#ED1C24" d="M1257.945,941.768c-1.28-1.611-4.664-1.989-7.589-1.989c-2.926,0-5.465,1.098-6.745,2.706
				c0.007,0.003,0.012,0.008,0.016,0.012c0.266,0.193,3.682,2.679,3.979,4.885c0.459,3.408,2.086,7.24,8.146,6.511
				C1261.812,953.16,1260.968,945.404,1257.945,941.768z"/>
		</g>
		<g>
			<g>
				<g>
					<circle cx="1236.065" cy="923.892" r="6.841"/>
				</g>
				<circle fill="#FFFFFF" cx="1233.635" cy="921.043" r="2.07"/>
			</g>
			<g>
				<g>
					<circle cx="1264.647" cy="923.892" r="6.84"/>
				</g>
				<circle fill="#FFFFFF" cx="1262.217" cy="921.043" r="2.069"/>
			</g>
		</g>
	</g>
</g>
<g>
	<g>
		<g>
			<path opacity="0.6" fill="#FFEE6C" d="M1799.101,944.447c0,0-5.862,6.351-8.001,24.945c18.595-2.142,24.941-7.999,24.941-7.999
				L1799.101,944.447z"/>
			<path opacity="0.6" fill="#FFEE6C" d="M1802.341,947.689c0,0-3.618,3.92-4.94,15.4c11.48-1.32,15.401-4.938,15.401-4.938
				L1802.341,947.689z"/>
			<path fill="#FFFFFF" stroke="#000000" stroke-width="2" stroke-miterlimit="10" d="M1860.106,900.383
				c0,0-27.38,1.643-65.557,41.535c0,0,3.091,7.019,10.247,13.774c6.758,7.161,13.776,10.247,13.776,10.247
				C1858.464,927.762,1860.106,900.383,1860.106,900.383z"/>
			<path fill="#F994AE" stroke="#000000" stroke-width="2" stroke-miterlimit="10" d="M1843.199,917.289
				c2.925,3.098,5.896,5.431,8.323,7.082c8.041-14.94,8.584-23.988,8.584-23.988s-9.047,0.542-23.989,8.583
				C1837.771,911.396,1840.104,914.367,1843.199,917.289z"/>
			<g>
				<g>
					<path fill="#A194A9" d="M1827.382,943.168c-2.76,0-5.354-1.074-7.308-3.023c-1.952-1.954-3.027-4.55-3.027-7.311
						s1.075-5.356,3.027-7.308c1.952-1.952,4.548-3.028,7.308-3.028s5.355,1.076,7.309,3.028c4.028,4.03,4.028,10.588,0,14.617
						C1832.737,942.094,1830.142,943.168,1827.382,943.168z"/>
					<path d="M1827.382,923.498c2.389,0,4.778,0.912,6.602,2.735c3.643,3.645,3.645,9.558,0,13.203
						c-1.823,1.821-4.213,2.731-6.602,2.731s-4.777-0.91-6.601-2.731c-3.646-3.647-3.646-9.559,0-13.203
						C1822.604,924.41,1824.993,923.498,1827.382,923.498 M1827.382,921.498c-3.027,0-5.873,1.18-8.015,3.321
						c-2.142,2.14-3.32,4.986-3.32,8.015c0,3.027,1.179,5.875,3.32,8.017c2.143,2.14,4.988,3.317,8.015,3.317
						s5.873-1.178,8.015-3.316c4.419-4.42,4.42-11.611,0.002-16.032C1833.256,922.678,1830.409,921.498,1827.382,921.498
						L1827.382,921.498z"/>
				</g>
				<g>
					<g>
						<path fill="#8BDAEB" d="M1827.381,939.737c-1.844,0-3.577-0.719-4.881-2.022c-2.691-2.691-2.691-7.071,0-9.764
							c1.304-1.304,3.036-2.021,4.88-2.021c1.845,0,3.579,0.719,4.884,2.023c2.689,2.692,2.689,7.071,0,9.762
							C1830.959,939.019,1829.226,939.737,1827.381,939.737z"/>
						<path d="M1827.38,926.43c1.64,0,3.279,0.626,4.53,1.877c2.498,2.5,2.5,6.554,0,9.055c-1.251,1.25-2.891,1.876-4.529,1.876
							s-3.277-0.626-4.527-1.876c-2.501-2.501-2.501-6.555,0-9.057C1824.104,927.055,1825.741,926.43,1827.38,926.43
							 M1827.381,925.43L1827.381,925.43c-1.978,0-3.837,0.771-5.234,2.168c-2.887,2.888-2.887,7.585,0,10.471
							c1.397,1.398,3.257,2.169,5.234,2.169s3.838-0.771,5.236-2.169c2.885-2.886,2.885-7.582,0-10.469
							C1831.218,926.2,1829.358,925.43,1827.381,925.43L1827.381,925.43z"/>
					</g>
				</g>
			</g>
			<g>
				<polygon fill="#5CE8D9" stroke="#000000" stroke-width="2" stroke-miterlimit="10" points="1834.41,963.337 1821.47,990.719 
					1820.744,972.928 1814.037,963.409 1824.976,950.753 				"/>
				<polygon fill="#5CE8D9" stroke="#000000" stroke-width="2" stroke-miterlimit="10" points="1796.879,925.802 1769.498,938.744 
					1787.287,939.471 1796.807,946.181 1809.459,935.242 				"/>
			</g>
		</g>
	</g>
</g>
<g>
	<g>
		<g>
			<g>
				
					<rect x="485.017" y="894.66" fill="#FFE65B" stroke="#000000" stroke-width="2" stroke-miterlimit="10" width="7.56" height="22.129"/>
				
					<rect x="485.017" y="966.138" fill="#FFE65B" stroke="#000000" stroke-width="2" stroke-miterlimit="10" width="7.56" height="22.13"/>
			</g>
			<g>
				
					<rect x="513.47" y="937.683" fill="#FFE65B" stroke="#000000" stroke-width="2" stroke-miterlimit="10" width="22.13" height="7.562"/>
				
					<rect x="441.994" y="937.683" fill="#FFE65B" stroke="#000000" stroke-width="2" stroke-miterlimit="10" width="22.129" height="7.562"/>
			</g>
			<g>
				
					<rect x="510.289" y="905.126" transform="matrix(0.7073 0.7069 -0.7069 0.7073 798.136 -95.233)" fill="#FFE65B" stroke="#000000" stroke-width="2" stroke-miterlimit="10" width="7.561" height="22.132"/>
				
					<rect x="459.745" y="955.671" transform="matrix(0.7071 0.7071 -0.7071 0.7071 819.3491 -44.6121)" fill="#FFE65B" stroke="#000000" stroke-width="2" stroke-miterlimit="10" width="7.561" height="22.131"/>
			</g>
			<g>
				
					<rect x="459.746" y="905.128" transform="matrix(0.7072 -0.707 0.707 0.7072 -512.0534 596.0197)" fill="#FFE65B" stroke="#000000" stroke-width="2" stroke-miterlimit="10" width="7.559" height="22.131"/>
				
					<rect x="510.288" y="955.671" transform="matrix(0.707 -0.7072 0.7072 0.707 -533.0773 646.8429)" fill="#FFE65B" stroke="#000000" stroke-width="2" stroke-miterlimit="10" width="7.56" height="22.13"/>
			</g>
			<circle fill="#FFEE6C" stroke="#000000" stroke-width="3" stroke-miterlimit="10" cx="488.797" cy="941.464" r="25.418"/>
			<g>
				<g>
					<g>
						<circle cx="477.123" cy="937.683" r="6.79"/>
					</g>
					<circle fill="#FFFFFF" cx="474.711" cy="934.856" r="2.054"/>
				</g>
				<g>
					<g>
						<circle cx="500.471" cy="937.683" r="6.79"/>
					</g>
					<circle fill="#FFFFFF" cx="498.059" cy="934.856" r="2.053"/>
				</g>
			</g>
			<g>
				<path d="M474.553,947.928c0,7.867,6.378,14.244,14.243,14.244c7.868,0,14.246-6.377,14.246-14.244H474.553z"/>
				<path fill="#F994AE" d="M480.096,959.188c2.408,1.864,5.42,2.984,8.7,2.984c3.281,0,6.293-1.12,8.702-2.983
					c-1.339-3.157-4.725-5.402-8.702-5.402C484.82,953.786,481.435,956.031,480.096,959.188z"/>
			</g>
		</g>
	</g>
</g>
<g>
	<g>
		
			<rect x="271.541" y="944.277" fill="#AF697D" stroke="#000000" stroke-width="2" stroke-miterlimit="10" width="53.853" height="20.443"/>
		<g>
			
				<rect x="286.755" y="959.004" fill="#5CE8D9" stroke="#000000" stroke-width="2" stroke-miterlimit="10" width="23.427" height="27.095"/>
			<path fill="#8B51AE" stroke="#000000" stroke-width="2" stroke-linejoin="round" stroke-miterlimit="10" d="M278.447,973.39
				v12.709h8.308v-27.095C280.177,960.83,278.447,964.896,278.447,973.39z"/>
			<path fill="#8B51AE" stroke="#000000" stroke-width="2" stroke-linejoin="round" stroke-miterlimit="10" d="M310.182,959.004
				v27.095h8.307V973.39C318.488,964.896,316.76,960.83,310.182,959.004z"/>
		</g>
		<path fill="#FFFFFF" stroke="#000000" stroke-width="2" stroke-miterlimit="10" d="M327.063,930.072l-0.012,0.057l0.279-7.287
			c0-21.955-12.922-20.855-28.861-20.855c-15.944,0-28.866-1.1-28.866,20.855l0.269,7.23c-5.639-0.083-8.36,1.448-6.979,8.519
			c0.851,4.362,6.04,6.343,9.718,5.645c4.07,11.55,17.897,17.769,25.859,17.769c7.957,0,21.688-6.511,25.826-17.818l-0.008,0.044
			c3.687,0.718,8.901-1.264,9.754-5.639C335.423,931.518,332.701,929.989,327.063,930.072z"/>
		<path fill="#F994AE" stroke="#000000" stroke-width="2" stroke-miterlimit="10" d="M330.993,941.539
			c-0.88-23.591-1.384-22.983-2.128-26.946l-0.03-0.013c-1.662-7.979-7.777-17.926-27.951-17.926h-4.832
			c-20.177,0-26.306,9.953-27.968,17.932c-0.744,3.963-1.263,3.362-2.143,26.953c-0.315,8.401,1.689,19.063,4.089,23.182h3.33
			c-3.897-25.472,5.419-50.824,5.419-50.824s19.549,12.754,41.59,9.229c2.478,9.355,5.824,24.484,3.205,41.596h3.332
			C329.304,960.603,331.309,949.94,330.993,941.539z"/>
		<g>
			<g>
				<g>
					<g>
						<g>
							<g>
								<circle cx="286.847" cy="936.704" r="5.25"/>
							</g>
							<path fill="#FFFFFF" d="M286.572,934.518c0,0.874-0.711,1.59-1.588,1.59c-0.879,0-1.588-0.716-1.588-1.59
								c0-0.877,0.709-1.589,1.588-1.589C285.861,932.929,286.572,933.641,286.572,934.518z"/>
						</g>
						<g>
							<g>
								<path d="M315.337,936.704c0,2.898-2.348,5.249-5.247,5.249c-2.9,0-5.252-2.351-5.252-5.249c0-2.901,2.352-5.253,5.252-5.253
									C312.989,931.451,315.337,933.803,315.337,936.704z"/>
							</g>
							<path fill="#FFFFFF" d="M309.809,934.518c0,0.874-0.706,1.59-1.584,1.59c-0.879,0-1.589-0.716-1.589-1.59
								c0-0.877,0.71-1.589,1.589-1.589C309.103,932.929,309.809,933.641,309.809,934.518z"/>
						</g>
					</g>
				</g>
			</g>
		</g>
		<g>
			<path fill="none" stroke="#000000" stroke-width="2" stroke-linecap="round" stroke-miterlimit="10" d="M290.787,949.316
				c1.536,1.734,4.396,2.903,7.681,2.903s6.147-1.169,7.681-2.903"/>
		</g>
	</g>
</g>
<g>
	<g>
		<path fill="#FFEE6C" stroke="#000000" stroke-width="3" stroke-miterlimit="10" d="M840.132,934.636v40.343
			c0,4.336,3.547,7.884,7.886,7.884h43.169c4.334,0,7.885-3.548,7.885-7.884v-40.343H840.132z"/>
		<path fill="#F63E3C" stroke="#000000" stroke-width="3" stroke-miterlimit="10" d="M830.398,935.742
			c-4.06,4.456-0.738,8.098,7.38,8.098h63.647c8.117,0,11.438-3.642,7.379-8.098l-31.824-34.92c-4.059-4.452-10.701-4.452-14.759,0
			L830.398,935.742z"/>
		
			<rect x="861.048" y="962.114" fill="#8B51AE" stroke="#000000" stroke-width="2" stroke-miterlimit="10" width="17.107" height="20.748"/>
		<g>
			<circle cx="851.604" cy="956.262" r="5.852"/>
			<circle cx="887.601" cy="956.262" r="5.852"/>
		</g>
	</g>
</g>
<g>
	<g>
		<g>
			<g>
				
					<rect x="1589.363" y="721.878" fill="#F994AE" stroke="#000000" stroke-width="2" stroke-miterlimit="10" width="83.313" height="49.218"/>
				<polygon fill="#5CE8D9" stroke="#000000" stroke-width="2" stroke-miterlimit="10" points="1645.36,719.511 1645.36,710.515 
					1616.678,710.515 1616.678,719.511 1589.363,719.511 1589.363,736.899 1672.677,736.899 1672.677,719.511 				"/>
				<circle fill="#233144" stroke="#000000" stroke-width="2" stroke-miterlimit="10" cx="1631.021" cy="745.296" r="22.308"/>
				<path fill="#FFEF94" stroke="#000000" stroke-width="2" stroke-miterlimit="10" d="M1647.563,745.296
					c0,9.138-7.407,16.544-16.544,16.544c-9.136,0-16.546-7.406-16.546-16.544c0-9.141,7.41-16.545,16.546-16.545
					C1640.156,728.751,1647.563,736.155,1647.563,745.296z"/>
			</g>
			
				<rect x="1656.015" y="726.155" fill="#FFEF94" stroke="#000000" stroke-width="2" stroke-miterlimit="10" width="12.677" height="5.763"/>
		</g>
	</g>
</g>
<g>
	<g>
		<g>
			<g>
				<polygon fill="#F63E3C" stroke="#000000" stroke-width="2" stroke-miterlimit="10" points="1631.11,960.231 1617.228,960.231 
					1617.228,992.356 1631.11,980.578 1644.992,992.356 1644.992,960.231 				"/>
				<g>
					<g>
						<polygon fill="#FFEE6C" stroke="#000000" stroke-width="2" stroke-miterlimit="10" points="1631.11,896.608 1637.686,890.397 
							1642.021,898.336 1650.19,894.464 1651.861,903.348 1660.827,902.192 1659.671,911.156 1668.559,912.83 1664.686,921.001 
							1672.62,925.336 1666.414,931.908 1672.62,938.482 1664.686,942.818 1668.559,950.988 1659.671,952.661 1660.827,961.624 
							1651.861,960.471 1650.19,969.354 1642.021,965.482 1637.686,973.416 1631.11,967.211 1624.536,973.416 1620.202,965.482 
							1612.029,969.354 1610.36,960.471 1601.394,961.624 1602.552,952.661 1593.666,950.988 1597.536,942.818 1589.602,938.482 
							1595.812,931.908 1589.602,925.336 1597.536,921.001 1593.666,912.83 1602.552,911.156 1601.394,902.192 1610.36,903.348 
							1612.029,894.464 1620.202,898.336 1624.536,890.397 						"/>
						<path fill="#C9A54B" stroke="#000000" stroke-width="2" stroke-miterlimit="10" d="M1662.907,933.055
							c0,17.564-14.234,31.8-31.797,31.8c-17.56,0-31.797-14.235-31.797-31.8c0-17.559,14.237-31.793,31.797-31.793
							C1648.673,901.262,1662.907,915.496,1662.907,933.055z"/>
						<polygon fill="#FFEE6C" stroke="#000000" stroke-width="2" stroke-miterlimit="10" points="1631.112,908.421 
							1638.471,923.331 1654.925,925.726 1643.017,937.327 1645.827,953.716 1631.112,945.979 1616.396,953.716 1619.204,937.327 
							1607.3,925.726 1623.754,923.331 						"/>
					</g>
				</g>
			</g>
		</g>
		<g>
			<g>
				<path d="M1625.239,930.154c0,1.374-1.112,2.486-2.484,2.486c-1.371,0-2.483-1.112-2.483-2.486c0-1.37,1.112-2.483,2.483-2.483
					C1624.127,927.671,1625.239,928.784,1625.239,930.154z"/>
				<path d="M1641.951,930.154c0,1.374-1.109,2.486-2.484,2.486c-1.368,0-2.483-1.112-2.483-2.486c0-1.37,1.115-2.483,2.483-2.483
					C1640.842,927.671,1641.951,928.784,1641.951,930.154z"/>
			</g>
			<path fill="none" stroke="#000000" stroke-width="2" stroke-linecap="round" stroke-miterlimit="10" d="M1626.031,934.222
				c1.018,1.146,2.906,1.92,5.081,1.92c2.172,0,4.064-0.773,5.079-1.92"/>
		</g>
	</g>
</g>
<g>
	<g>
		<g>
			<path fill="#FFFFFF" stroke="#000000" stroke-width="2" stroke-miterlimit="10" d="M1270.671,532.479
				c0.428-6.514,9.736-10.753,11.461-13.392c1.725-2.642-2.357-4.702-2.357-4.702l-6.426-4.386l0.006-0.009l-0.236-0.147
				l-0.232-0.159l-0.006,0.01l-6.598-4.12c0,0-3.525-2.907-5.252-0.269c-1.723,2.641-1.861,12.867-7.654,15.877
				c0,0-25.496-4.033-38.465,15.824c-12.971,19.86-0.574,35.36,2.646,38.792c0,0-0.875,1.188,7.684,6.842l-0.002,0.001
				c0.082,0.052,0.156,0.101,0.236,0.152c0.08,0.053,0.152,0.102,0.232,0.156l0.004-0.004c8.613,5.564,9.35,4.286,9.35,4.286
				c4.439,1.568,23.613,6.688,36.584-13.173C1284.614,554.202,1270.671,532.479,1270.671,532.479z"/>
			<g>
				<g>
					<path fill="#FFEE6C" stroke="#000000" stroke-width="3" stroke-miterlimit="10" d="M1270.876,491.013l-8.295,12.704
						c-0.701,1.069,3.371,4.968,9.092,8.705c5.721,3.735,10.926,5.896,11.627,4.827l8.297-12.705L1270.876,491.013z"/>
				</g>
			</g>
			<path fill="#AE80CE" stroke="#000000" stroke-width="2" stroke-linejoin="bevel" stroke-miterlimit="10" d="M1273.62,550.566
				c0,4.36-13.453,7.895-30.053,7.895c-15.629,0-28.465-3.133-29.912-7.14c-0.063,0.791-0.104,1.587-0.104,2.393
				c0,16.647,13.496,30.144,30.143,30.144s30.145-13.496,30.145-30.144L1273.62,550.566z"/>
			
				<ellipse fill="#8B51AE" stroke="#000000" stroke-width="2" stroke-miterlimit="10" cx="1243.693" cy="550.566" rx="30.036" ry="7.895"/>
		</g>
	</g>
</g>
<g>
	<g>
		<circle opacity="0.5" fill="#FFFFFF" cx="857.778" cy="725.423" r="24.078"/>
		<g>
			
				<rect x="877.855" y="740.913" transform="matrix(0.707 -0.7072 0.7072 0.707 -272.6086 843.2339)" fill="#CCC2D3" stroke="#000000" stroke-width="2" stroke-miterlimit="10" width="6.847" height="19.356"/>
			<path d="M881.152,714.409c-6.085-12.913-21.48-18.447-34.389-12.36c-12.912,6.08-18.445,21.479-12.363,34.389
				c6.086,12.913,21.481,18.446,34.392,12.364C881.703,742.717,887.237,727.319,881.152,714.409z M836.042,735.666
				c-5.656-12.003-0.512-26.325,11.494-31.98c12.003-5.656,26.322-0.51,31.976,11.497c5.658,12.002,0.513,26.316-11.489,31.974
				C856.016,752.818,841.7,747.67,836.042,735.666z"/>
			<g>
				<path fill="#CCC2D3" stroke="#000000" stroke-width="2" stroke-miterlimit="10" d="M843.246,752.716
					c-3.686-1.963-6.876-4.586-9.484-7.803c-2.516-3.106-4.386-6.629-5.559-10.468c-1.173-3.844-1.584-7.808-1.228-11.788
					c0.367-4.126,1.547-8.086,3.513-11.768c1.958-3.685,4.583-6.873,7.802-9.484c3.105-2.516,6.625-4.387,10.466-5.559
					c3.84-1.171,7.807-1.585,11.789-1.226c4.124,0.364,8.083,1.549,11.767,3.511s6.872,4.585,9.481,7.802
					c2.518,3.104,4.388,6.629,5.561,10.47c1.17,3.838,1.583,7.805,1.229,11.786c-0.371,4.125-1.55,8.086-3.514,11.766
					c-1.962,3.685-4.587,6.875-7.802,9.484c-3.105,2.518-6.628,4.388-10.469,5.557c-3.838,1.175-7.804,1.588-11.788,1.229
					C850.887,755.858,846.928,754.678,843.246,752.716z M870.087,702.307c-6.176-3.286-13.262-3.975-19.951-1.934
					c-6.689,2.04-12.186,6.566-15.472,12.741c-3.289,6.175-3.975,13.258-1.933,19.95c2.041,6.69,6.563,12.187,12.737,15.476
					c6.173,3.29,13.258,3.974,19.951,1.93c6.692-2.037,12.185-6.563,15.474-12.737c3.287-6.176,3.975-13.262,1.934-19.948
					C880.785,711.091,876.26,705.596,870.087,702.307z"/>
			</g>
			<path fill="#8B51AE" stroke="#000000" stroke-width="2" stroke-miterlimit="10" d="M912.174,771.944
				c1.279,1.202,1.346,3.208,0.151,4.489l-3.689,3.936c-1.194,1.281-3.202,1.353-4.481,0.153l-22.247-20.813
				c-1.278-1.196-1.347-3.203-0.147-4.482l3.684-3.939c1.197-1.28,3.205-1.345,4.484-0.151L912.174,771.944z"/>
		</g>
		<g>
			<g>
				<circle cx="847.491" cy="723.269" r="3.058"/>
				<circle cx="868.062" cy="723.269" r="3.058"/>
			</g>
			<path fill="none" stroke="#000000" stroke-width="2" stroke-linecap="round" stroke-miterlimit="10" d="M851.525,728.274
				c1.25,1.41,3.578,2.362,6.252,2.362c2.673,0,5.003-0.952,6.252-2.362"/>
		</g>
	</g>
</g>
<g>
	<g>
		<g>
			<path fill="#FFE65B" stroke="#000000" stroke-width="2" stroke-miterlimit="10" d="M690.559,952.206h-22.765
				c3.095,8.455,5.667,20.397-1.457,26.037h25.679C684.895,972.604,687.467,960.661,690.559,952.206z"/>
			<g>
				<g>
					<path fill="#F390B2" stroke="#000000" stroke-width="2" stroke-miterlimit="10" d="M660.123,947.534
						c-10.156,0-17.997-2.882-23.308-8.57c-7.67-8.209-7.016-19.165-6.984-19.63l0.195-2.854h22.947v6.128h-16.905
						c0.337,3.117,1.482,8.197,5.267,12.221c4.108,4.364,10.429,6.579,18.788,6.579V947.534z"/>
				</g>
				<g>
					<path fill="#F390B2" stroke="#000000" stroke-width="2" stroke-miterlimit="10" d="M698.232,947.534v-6.127
						c8.387,0,14.723-2.228,18.83-6.626c3.781-4.05,4.913-9.082,5.236-12.174h-16.918v-6.128h22.948l0.192,2.854
						c0.032,0.465,0.687,11.421-6.98,19.63C716.229,944.652,708.386,947.534,698.232,947.534z"/>
				</g>
			</g>
			<path fill="#FFE65B" stroke="#000000" stroke-width="2" stroke-miterlimit="10" d="M711.972,925.622
				c0,18.111-14.683,32.796-32.796,32.796c-18.11,0-32.792-14.685-32.792-32.796v-7.364h65.588V925.622z"/>
			
				<rect x="657.58" y="976.445" fill="#F994AE" stroke="#000000" stroke-width="2" stroke-miterlimit="10" width="43.194" height="11.841"/>
			
				<rect x="643.581" y="909.027" fill="#FFE65B" stroke="#000000" stroke-width="2" stroke-miterlimit="10" width="71.192" height="10.049"/>
			<g>
				<path fill="#F994AE" stroke="#000000" stroke-width="2" stroke-miterlimit="10" d="M680.918,944.615
					c-0.959-0.505-2.524-0.505-3.482,0l-4.222,2.22c-0.958,0.503-1.592,0.044-1.41-1.023l0.806-4.703
					c0.184-1.065-0.301-2.556-1.076-3.313l-3.417-3.33c-0.774-0.753-0.531-1.498,0.54-1.654l4.721-0.688
					c1.069-0.155,2.34-1.077,2.816-2.048l2.112-4.278c0.478-0.969,1.264-0.969,1.741,0l2.111,4.278
					c0.48,0.971,1.748,1.893,2.818,2.048l4.722,0.688c1.071,0.156,1.312,0.901,0.538,1.654l-3.416,3.33
					c-0.773,0.757-1.261,2.247-1.076,3.313l0.805,4.703c0.184,1.067-0.449,1.526-1.408,1.023L680.918,944.615z"/>
			</g>
		</g>
	</g>
</g>
<g>
	<g>
		<g>
			<g>
				<g>
					<g>
						<g>
							<g>
								<g>
									<g>
										<path fill="#FFEE6C" d="M1846.322,502.239h-14.462v-6.66h-20.28v6.66h-14.462c-5.297,0-9.581,5.405-9.581,10.812
											l0.007,0.104h68.353l0.006-0.104C1855.902,507.644,1851.612,502.239,1846.322,502.239z"/>
									</g>
									<g>
										<path fill="none" stroke="#000000" stroke-width="3" stroke-miterlimit="10" d="M1846.322,502.239h-14.462v-6.66h-20.28
											v6.66h-14.462c-5.297,0-9.581,5.405-9.581,10.812l0.007,0.104h68.353l0.006-0.104
											C1855.902,507.644,1851.612,502.239,1846.322,502.239z"/>
									</g>
								</g>
								<g>
									<g>
										<path fill="#FFEE6C" d="M1792.1,572.9c0,5.408,4.298,9.79,9.588,9.79h0.051h39.964h0.051c5.297,0,9.588-4.382,9.588-9.79
											l4.005-54.321h-67.258L1792.1,572.9z M1836.766,528.187l7.706,0.601l-3.243,43.727h-7.746L1836.766,528.187z
											 M1817.852,528.427h7.732v44.087h-7.732V528.427z M1806.681,528.187l3.278,44.328h-7.746l-3.253-43.727L1806.681,528.187z
											"/>
									</g>
									<g>
										<path fill="none" stroke="#000000" stroke-width="3" stroke-miterlimit="10" d="M1792.1,572.9
											c0,5.408,4.298,9.79,9.588,9.79h0.051h39.964h0.051c5.297,0,9.588-4.382,9.588-9.79l4.005-54.321h-67.258L1792.1,572.9z
											 M1836.766,528.187l7.706,0.601l-3.243,43.727h-7.746L1836.766,528.187z M1817.852,528.427h7.732v44.087h-7.732V528.427z
											 M1806.681,528.187l3.278,44.328h-7.746l-3.253-43.727L1806.681,528.187z"/>
									</g>
								</g>
							</g>
						</g>
					</g>
				</g>
			</g>
		</g>
	</g>
</g>
<g>
	<g>
		<g>
			<path fill="#FFFFFF" stroke="#000000" stroke-width="3" stroke-miterlimit="10" d="M1096.285,520.256
				c-11.566-19.172-29.156-5.936-29.156-5.936c-1.141,0.854-3.238,1.555-4.66,1.552l-4.703-0.016
				c-1.426-0.005-3.52-0.722-4.648-1.587c0,0-17.482-13.377-29.201,5.699c-11.715,19.071-7.111,39.912-7.111,39.912
				c0.803,5.098,3.498,8.513,8.609,8.106c5.102-0.407,16.213-13.666,16.213-13.666c0.916-1.09,2.836-1.979,4.258-1.974l28.158,0.108
				c1.422,0.007,3.332,0.908,4.24,2.012c0,0,11.01,13.348,16.109,13.789c5.107,0.45,7.832-2.945,8.672-8.034
				C1103.063,560.224,1107.846,539.424,1096.285,520.256z"/>
			<g>
				<g>
					<g>
						<path fill="#F994AE" d="M1048.342,530.301l-4.91-0.023l0.02-4.909c0.01-1.882-1.51-3.409-3.389-3.417
							c-1.881-0.009-3.406,1.509-3.416,3.389l-0.02,4.911l-4.914-0.021c-1.877-0.006-3.404,1.513-3.412,3.391
							c-0.006,1.878,1.51,3.408,3.387,3.413l4.91,0.023l-0.018,4.913c-0.006,1.877,1.508,3.405,3.387,3.413
							c1.881,0.009,3.408-1.508,3.418-3.389l0.021-4.912l4.912,0.019c1.877,0.012,3.404-1.509,3.412-3.386
							C1051.738,531.836,1050.223,530.306,1048.342,530.301z"/>
					</g>
					<g>
						<path fill="#8B51AE" d="M1084.123,526.155c-0.008,2.224-1.814,4.019-4.041,4.012c-2.225-0.012-4.018-1.82-4.012-4.044
							c0.008-2.224,1.822-4.021,4.045-4.009C1082.34,522.121,1084.133,523.93,1084.123,526.155z"/>
						<path fill="#8B51AE" d="M1084.064,541.532c-0.01,2.226-1.82,4.021-4.043,4.011c-2.225-0.008-4.023-1.818-4.012-4.04
							c0.008-2.224,1.816-4.02,4.043-4.013C1082.275,537.502,1084.072,539.309,1084.064,541.532z"/>
						<path fill="#8B51AE" d="M1072.396,529.771c2.221,0.009,4.016,1.82,4.01,4.044c-0.012,2.223-1.818,4.021-4.045,4.009
							c-2.225-0.006-4.02-1.818-4.012-4.042C1068.359,531.556,1070.168,529.763,1072.396,529.771z"/>
						<path fill="#8B51AE" d="M1087.775,529.832c2.221,0.009,4.014,1.817,4.004,4.043c-0.006,2.224-1.814,4.019-4.039,4.011
							c-2.225-0.011-4.02-1.819-4.012-4.043C1083.738,531.617,1085.547,529.822,1087.775,529.832z"/>
					</g>
				</g>
			</g>
		</g>
	</g>
</g>
<g>
	<g>
		<g>
			<g>
				<polygon fill="#5CE8D9" stroke="#000000" stroke-width="3" stroke-miterlimit="10" points="1463.117,505.511 1418.35,505.511 
					1392.244,528.89 1440.733,585.109 1489.223,528.89 				"/>
				<path d="M1466.991,527.209l-1.91-19.94l-1.964-1.758h-1.581l1.839,19.18l-20.2-19.18h-4.883l-20.2,19.18l1.838-19.18h-1.58
					l-1.964,1.758l-1.911,19.94h-20.355l-1.875,1.681l1.321,1.681h21.406l22.087,49.872l3.675,4.667l3.674-4.667l22.088-49.872
					h21.406l1.321-1.681l-1.876-1.681H1466.991z M1440.733,507.825l20.414,19.384h-40.828L1440.733,507.825z M1440.733,580.585
					l-22.145-50.015h44.289L1440.733,580.585z"/>
			</g>
		</g>
		<g>
			<g>
				<g>
					<circle cx="1430.029" cy="537.721" r="3.149"/>
					<path d="M1454.366,537.721c0,1.741-1.409,3.15-3.15,3.15c-1.736,0-3.147-1.409-3.147-3.15c0-1.739,1.411-3.148,3.147-3.148
						C1452.957,534.572,1454.366,535.981,1454.366,537.721z"/>
				</g>
			</g>
			<path fill="none" stroke="#000000" stroke-width="2" stroke-linecap="round" stroke-miterlimit="10" d="M1434.183,542.877
				c1.288,1.453,3.686,2.434,6.441,2.434c2.755,0,5.153-0.98,6.438-2.434"/>
		</g>
	</g>
</g>
<g>
	<g>
		<g>
			<path fill="#F63E3C" stroke="#000000" stroke-width="3" stroke-miterlimit="10" d="M697.742,711.649
				c-7.609,0-14.352,4.359-18.521,10.315c-4.158-5.956-10.906-10.315-18.517-10.315c-12.654,0-22.908,10.688-22.908,23.861
				c0,20.051,41.425,45.33,41.425,45.33s41.432-25.279,41.432-45.33C720.652,722.337,710.393,711.649,697.742,711.649z"/>
		</g>
		<g>
			<g>
				<circle cx="668.937" cy="742.684" r="3.058"/>
				<path d="M692.568,742.684c0,1.69-1.369,3.06-3.061,3.06c-1.686,0-3.055-1.369-3.055-3.06c0-1.688,1.369-3.057,3.055-3.057
					C691.199,739.627,692.568,740.995,692.568,742.684z"/>
			</g>
			<path fill="none" stroke="#000000" stroke-width="2" stroke-linecap="round" stroke-miterlimit="10" d="M672.971,747.689
				c1.25,1.411,3.578,2.362,6.254,2.362c2.674,0,5.004-0.951,6.252-2.362"/>
		</g>
	</g>
</g>
</svg>
